<svg width="55" height="28" viewBox="0 0 55 28" fill="none" xmlns="http://www.w3.org/2000/svg">
<path d="M6.77843 12.6933L21.2378 12.5621L21.2661 15.682L6.80673 15.8131L6.77843 12.6933ZM6.73326 7.71348L21.1927 7.58233L21.2207 10.6722L6.76128 10.8034L6.73326 7.71348ZM6.68863 2.79368L21.148 2.66253L21.1758 5.72241L6.71639 5.85356L6.68863 2.79368ZM19.8176 24.6655C18.5276 24.6772 18.2863 24.5294 18.2784 23.6594L18.2242 17.6897L23.534 17.6415L23.3797 0.632206L4.51049 0.803355L4.66477 17.8127L8.71461 17.7759C8.11946 21.6215 6.55075 23.9758 0.412158 25.2615C0.866221 25.7074 1.50463 26.6317 1.68979 27.2C8.48536 25.5783 10.3781 22.561 11.0545 17.7547L15.9743 17.7101L16.0287 23.7098C16.0508 26.1397 16.8067 26.7929 19.6266 26.7673L24.4564 26.7235C26.9763 26.7007 27.6265 25.6147 27.857 21.2624C27.2257 21.1182 26.2625 20.7669 25.7789 20.3813C25.6924 24.0722 25.4573 24.6144 24.2574 24.6252L19.8176 24.6655ZM40.0687 21.3917C40.0592 20.3417 41.1012 19.4623 42.4512 19.45C44.7311 19.4293 46.2465 21.1257 46.508 23.4934C45.7591 23.6202 44.9497 23.6875 44.0798 23.6954C41.7398 23.7166 40.0818 22.8316 40.0687 21.3917ZM36.0569 2.4673L36.1695 4.95638C36.7986 4.86067 37.488 4.79442 38.1477 4.75843C39.7369 4.65401 45.7342 4.32961 47.3236 4.25519C45.8059 5.61901 42.0846 8.80289 40.4172 10.1981C38.6906 11.6838 34.8799 14.9285 32.4085 16.991L34.1344 18.7454C37.9092 14.841 40.5598 12.6869 45.5696 12.6414C49.4694 12.6061 52.3094 14.8004 52.3361 17.7403C52.3584 20.2002 51.0242 21.9524 48.6328 22.9041C48.2469 20.0575 46.2147 17.6158 42.4649 17.6498C39.675 17.6751 37.8616 19.5216 37.8804 21.5916C37.903 24.0814 40.4089 25.8288 44.4888 25.7918C50.8485 25.7341 54.7801 22.5783 54.7363 17.7485C54.6995 13.6987 51.1025 10.7312 46.1227 10.7763C44.7727 10.7886 43.3341 10.9516 41.9585 11.4441C44.2808 9.473 48.329 5.95614 49.8186 4.80258C50.3545 4.3477 50.951 3.95228 51.4874 3.55739L50.0917 1.82998C49.7925 1.9227 49.3733 2.01651 48.4739 2.08467C46.8853 2.24908 39.7478 2.55383 38.1879 2.56798C37.5879 2.57342 36.7477 2.55104 36.0569 2.4673Z" fill="white"/>
<path d="M6.77843 12.6933L6.77661 12.4933L6.57662 12.4951L6.57843 12.6951L6.77843 12.6933ZM21.2378 12.5621L21.4378 12.5603L21.436 12.3603L21.236 12.3621L21.2378 12.5621ZM21.2661 15.682L21.2679 15.882L21.4679 15.8802L21.4661 15.6802L21.2661 15.682ZM6.80673 15.8131L6.60673 15.815L6.60855 16.015L6.80854 16.0131L6.80673 15.8131ZM6.73326 7.71348L6.73145 7.51349L6.53145 7.5153L6.53327 7.71529L6.73326 7.71348ZM21.1927 7.58233L21.3927 7.58051L21.3908 7.38052L21.1909 7.38234L21.1927 7.58233ZM21.2207 10.6722L21.2225 10.8722L21.4225 10.8704L21.4207 10.6704L21.2207 10.6722ZM6.76129 10.8034L6.56129 10.8052L6.56311 11.0052L6.7631 11.0033L6.76129 10.8034ZM6.68864 2.79368L6.68682 2.59369L6.48683 2.5955L6.48864 2.7955L6.68864 2.79368ZM21.148 2.66253L21.348 2.66072L21.3462 2.46073L21.1462 2.46254L21.148 2.66253ZM21.1758 5.72241L21.1776 5.9224L21.3776 5.92058L21.3758 5.72059L21.1758 5.72241ZM6.71639 5.85356L6.5164 5.85537L6.51821 6.05536L6.7182 6.05355L6.71639 5.85356ZM18.2242 17.6897L18.2224 17.4897L18.0224 17.4915L18.0242 17.6915L18.2242 17.6897ZM23.534 17.6415L23.5358 17.8415L23.7358 17.8397L23.734 17.6397L23.534 17.6415ZM23.3797 0.632206L23.5797 0.630392L23.5779 0.430401L23.3779 0.432215L23.3797 0.632206ZM4.51049 0.803355L4.50868 0.603363L4.30869 0.605177L4.3105 0.805169L4.51049 0.803355ZM4.66477 17.8127L4.46478 17.8145L4.46659 18.0145L4.66659 18.0126L4.66477 17.8127ZM8.71461 17.7759L8.91225 17.8065L8.94827 17.5738L8.71279 17.5759L8.71461 17.7759ZM0.412158 25.2615L0.371158 25.0658L0.00539111 25.1424L0.272025 25.4042L0.412158 25.2615ZM1.68979 27.2L1.49963 27.262L1.55678 27.4374L1.73622 27.3946L1.68979 27.2ZM11.0545 17.7547L11.0527 17.5547L10.8805 17.5563L10.8565 17.7268L11.0545 17.7547ZM15.9743 17.7101L16.1743 17.7083L16.1725 17.5083L15.9725 17.5101L15.9743 17.7101ZM27.857 21.2624L28.0567 21.273L28.0656 21.105L27.9016 21.0675L27.857 21.2624ZM25.7789 20.3813L25.9036 20.2249L25.5884 19.9735L25.579 20.3766L25.7789 20.3813ZM6.78024 12.8933L21.2396 12.7621L21.236 12.3621L6.77661 12.4933L6.78024 12.8933ZM21.0378 12.5639L21.0661 15.6838L21.4661 15.6802L21.4378 12.5603L21.0378 12.5639ZM21.2643 15.482L6.80491 15.6132L6.80854 16.0131L21.2679 15.882L21.2643 15.482ZM7.00672 15.8113L6.97842 12.6915L6.57843 12.6951L6.60673 15.815L7.00672 15.8113ZM6.73507 7.91347L21.1945 7.78232L21.1909 7.38234L6.73145 7.51349L6.73507 7.91347ZM20.9927 7.58414L21.0207 10.674L21.4207 10.6704L21.3927 7.58051L20.9927 7.58414ZM21.2189 10.4722L6.75947 10.6034L6.7631 11.0033L21.2225 10.8722L21.2189 10.4722ZM6.96128 10.8015L6.93325 7.71167L6.53327 7.71529L6.56129 10.8052L6.96128 10.8015ZM6.69045 2.99367L21.1499 2.86252L21.1462 2.46254L6.68682 2.59369L6.69045 2.99367ZM20.9481 2.66435L20.9758 5.72422L21.3758 5.72059L21.348 2.66072L20.9481 2.66435ZM21.174 5.52241L6.71458 5.65356L6.7182 6.05355L21.1776 5.9224L21.174 5.52241ZM6.91638 5.85174L6.88863 2.79187L6.48864 2.7955L6.5164 5.85537L6.91638 5.85174ZM19.8157 24.4655C19.4951 24.4684 19.2492 24.4612 19.059 24.4372C18.8675 24.4129 18.7506 24.3736 18.676 24.3253C18.5493 24.2431 18.4823 24.0929 18.4784 23.6576L18.0784 23.6612C18.0823 24.0959 18.14 24.4546 18.4584 24.6609C18.6063 24.7568 18.7921 24.8066 19.0089 24.834C19.227 24.8616 19.495 24.8684 19.8194 24.8655L19.8157 24.4655ZM18.4784 23.6576L18.4242 17.6879L18.0242 17.6915L18.0784 23.6612L18.4784 23.6576ZM18.226 17.8897L23.5358 17.8415L23.5322 17.4415L18.2224 17.4897L18.226 17.8897ZM23.734 17.6397L23.5797 0.630392L23.1797 0.63402L23.334 17.6433L23.734 17.6397ZM23.3779 0.432215L4.50868 0.603363L4.51231 1.00335L23.3815 0.832198L23.3779 0.432215ZM4.3105 0.805169L4.46478 17.8145L4.86476 17.8108L4.71049 0.801541L4.3105 0.805169ZM4.66659 18.0126L8.71642 17.9759L8.71279 17.5759L4.66296 17.6127L4.66659 18.0126ZM8.51696 17.7453C8.22235 19.649 7.69162 21.1501 6.50098 22.337C5.30669 23.5275 3.42381 24.4264 0.371158 25.0658L0.453158 25.4573C3.5391 24.8109 5.50987 23.8898 6.78337 22.6203C8.06052 21.3472 8.61172 19.7484 8.91225 17.8065L8.51696 17.7453ZM0.272025 25.4042C0.486274 25.6146 0.750887 25.9454 0.985606 26.2961C1.22166 26.6488 1.41556 27.0039 1.49963 27.262L1.87996 27.1381C1.77887 26.8278 1.56098 26.4366 1.31802 26.0736C1.07373 25.7086 0.792106 25.3543 0.552291 25.1188L0.272025 25.4042ZM1.73622 27.3946C5.15493 26.5787 7.37057 25.405 8.81524 23.8057C10.2608 22.2054 10.9118 20.2038 11.2526 17.7826L10.8565 17.7268C10.5208 20.1119 9.88725 22.0222 8.51841 23.5375C7.14873 25.0539 5.02023 26.1996 1.64337 27.0055L1.73622 27.3946ZM11.0563 17.9547L15.9761 17.9101L15.9725 17.5101L11.0527 17.5547L11.0563 17.9547ZM15.7743 17.7119L15.8287 23.7116L16.2287 23.708L16.1743 17.7083L15.7743 17.7119ZM15.8287 23.7116C15.8398 24.9328 16.0323 25.7862 16.6487 26.3116C17.2551 26.8284 18.2201 26.9801 19.6284 26.9673L19.6248 26.5673C18.2132 26.5801 17.3903 26.4181 16.9082 26.0072C16.4362 25.6049 16.2397 24.9167 16.2287 23.708L15.8287 23.7116ZM19.6284 26.9673L24.4582 26.9235L24.4546 26.5235L19.6248 26.5673L19.6284 26.9673ZM24.4582 26.9235C25.0998 26.9177 25.642 26.8445 26.0948 26.6575C26.5533 26.4681 26.9105 26.1659 27.1853 25.7217C27.4569 25.2828 27.6445 24.7111 27.7794 23.9852C27.9145 23.2583 27.9989 22.3642 28.0567 21.273L27.6573 21.2519C27.5998 22.3368 27.5165 23.2106 27.3861 23.9121C27.2556 24.6145 27.0799 25.1318 26.8451 25.5113C26.6136 25.8855 26.3213 26.1311 25.9421 26.2878C25.557 26.4468 25.0729 26.5179 24.4546 26.5235L24.4582 26.9235ZM27.9016 21.0675C27.597 20.9979 27.2085 20.8773 26.8377 20.727C26.4638 20.5755 26.123 20.3999 25.9036 20.2249L25.6542 20.5376C25.9184 20.7483 26.3009 20.9411 26.6874 21.0977C27.0769 21.2555 27.4857 21.3827 27.8125 21.4574L27.9016 21.0675ZM25.579 20.3766C25.5574 21.2984 25.5266 22.0186 25.4743 22.5815C25.4218 23.1466 25.3486 23.54 25.2479 23.8144C25.149 24.0839 25.0294 24.2231 24.8898 24.303C24.743 24.387 24.5455 24.4226 24.2556 24.4252L24.2592 24.8252C24.5692 24.8224 24.8511 24.7861 25.0886 24.6501C25.3333 24.51 25.5028 24.2809 25.6234 23.9522C25.7423 23.6283 25.8192 23.1934 25.8726 22.6185C25.9262 22.0412 25.9572 21.3096 25.9789 20.3859L25.579 20.3766ZM24.2556 24.4252L19.8157 24.4655L19.8194 24.8655L24.2592 24.8252L24.2556 24.4252ZM46.508 23.4934L46.5414 23.6906L46.7275 23.6591L46.7068 23.4714L46.508 23.4934ZM36.0569 2.4673L36.0809 2.26875L35.8464 2.24032L35.8571 2.47634L36.0569 2.4673ZM36.1695 4.95638L35.9697 4.96542L35.9797 5.18755L36.1995 5.15411L36.1695 4.95638ZM38.1477 4.75843L38.1586 4.95815L38.1609 4.958L38.1477 4.75843ZM47.3236 4.25519L47.4572 4.40395L47.8743 4.02918L47.3142 4.05541L47.3236 4.25519ZM40.4172 10.1981L40.2888 10.0447L40.2867 10.0465L40.4172 10.1981ZM32.4085 16.991L32.2803 16.8374L32.1137 16.9765L32.2659 17.1313L32.4085 16.991ZM34.1344 18.7454L33.9919 18.8857L34.1357 19.0319L34.2782 18.8844L34.1344 18.7454ZM48.6328 22.9041L48.4346 22.9309L48.4689 23.1845L48.7067 23.0899L48.6328 22.9041ZM41.9585 11.4441L41.8291 11.2917L42.026 11.6324L41.9585 11.4441ZM49.8186 4.80258L49.9412 4.96087L49.9481 4.95506L49.8186 4.80258ZM51.4874 3.55739L51.606 3.71846L51.7745 3.59443L51.643 3.4317L51.4874 3.55739ZM50.0917 1.82998L50.2472 1.70429L50.162 1.5988L50.0325 1.63895L50.0917 1.82998ZM48.4739 2.08467L48.4588 1.88516L48.4533 1.88573L48.4739 2.08467ZM40.2687 21.3899C40.2605 20.4879 41.1717 19.6616 42.453 19.65L42.4494 19.25C41.0307 19.2629 39.8578 20.1955 39.8687 21.3935L40.2687 21.3899ZM42.453 19.65C43.5392 19.6401 44.4352 20.0378 45.093 20.7154C45.7531 21.3953 46.1824 22.3672 46.3092 23.5153L46.7068 23.4714C46.5721 22.2518 46.1129 21.1917 45.38 20.4367C44.6447 19.6793 43.6431 19.2392 42.4494 19.25L42.453 19.65ZM46.4746 23.2962C45.7376 23.421 44.9388 23.4876 44.0779 23.4954L44.0816 23.8954C44.9606 23.8874 45.7807 23.8194 46.5414 23.6906L46.4746 23.2962ZM44.0779 23.4954C42.93 23.5058 41.9683 23.2932 41.2997 22.9172C40.6355 22.5436 40.2744 22.0198 40.2687 21.3899L39.8687 21.3935C39.876 22.2035 40.3505 22.8422 41.1036 23.2658C41.8523 23.6869 42.8896 23.9062 44.0816 23.8954L44.0779 23.4954ZM35.8571 2.47634L35.9697 4.96542L36.3693 4.94735L36.2567 2.45827L35.8571 2.47634ZM36.1995 5.15411C36.8213 5.05952 37.5042 4.99383 38.1586 4.95814L38.1369 4.55873C37.4718 4.595 36.7759 4.66183 36.1394 4.75866L36.1995 5.15411ZM38.1609 4.958C39.7483 4.85369 45.7443 4.52935 47.3329 4.45497L47.3142 4.05541C45.7241 4.12986 39.7254 4.45434 38.1346 4.55886L38.1609 4.958ZM47.1899 4.10643C45.6748 5.46793 41.9556 8.65008 40.2888 10.0447L40.5455 10.3515C42.2136 8.95571 45.937 5.77009 47.4572 4.40395L47.1899 4.10643ZM40.2867 10.0465C38.5607 11.5317 34.7507 14.7758 32.2803 16.8374L32.5366 17.1445C35.009 15.0812 38.8205 11.8359 40.5476 10.3497L40.2867 10.0465ZM32.2659 17.1313L33.9919 18.8857L34.277 18.6051L32.551 16.8507L32.2659 17.1313ZM34.2782 18.8844C36.1649 16.9329 37.7549 15.4361 39.49 14.4189C41.2183 13.4056 43.0987 12.8639 45.5714 12.8414L45.5677 12.4415C43.0306 12.4645 41.0808 13.0225 39.2877 14.0738C37.5013 15.1211 35.8787 16.6535 33.9907 18.6064L34.2782 18.8844ZM45.5714 12.8414C49.4115 12.8066 52.1108 14.9574 52.1361 17.7421L52.5361 17.7385C52.508 14.6434 49.5272 12.4055 45.5677 12.4415L45.5714 12.8414ZM52.1361 17.7421C52.1469 18.9336 51.8298 19.9437 51.2279 20.77C50.625 21.5977 49.7274 22.2532 48.5588 22.7183L48.7067 23.0899C49.9295 22.6033 50.8948 21.9068 51.5512 21.0055C52.2087 20.1028 52.5476 19.0069 52.5361 17.7385L52.1361 17.7421ZM48.8309 22.8772C48.6329 21.416 48.0109 20.0492 46.9472 19.0509C45.8811 18.0504 44.3844 17.4324 42.463 17.4498L42.4667 17.8498C44.2951 17.8332 45.6894 18.419 46.6734 19.3425C47.6597 20.2682 48.2468 21.5455 48.4346 22.9309L48.8309 22.8772ZM42.463 17.4498C39.5856 17.4759 37.6604 19.3914 37.6804 21.5934L38.0804 21.5897C38.0628 19.6519 39.7643 17.8743 42.4667 17.8498L42.463 17.4498ZM37.6804 21.5934C37.6924 22.9143 38.3665 24.0319 39.5538 24.8067C40.7359 25.5781 42.4247 26.0105 44.4906 25.9918L44.487 25.5918C42.473 25.6101 40.869 25.1873 39.7724 24.4718C38.6812 23.7597 38.091 22.7587 38.0804 21.5897L37.6804 21.5934ZM44.4906 25.9918C47.7007 25.9627 50.321 25.1516 52.1378 23.7166C53.9598 22.2776 54.9587 20.222 54.9362 17.7467L54.5363 17.7503C54.5576 20.1048 53.6127 22.042 51.8899 23.4027C50.162 24.7675 47.6366 25.5632 44.487 25.5918L44.4906 25.9918ZM54.9362 17.7467C54.8982 13.553 51.1744 10.5305 46.1208 10.5764L46.1245 10.9763C51.0305 10.9318 54.5008 13.8444 54.5363 17.7503L54.9362 17.7467ZM46.1208 10.5764C44.7571 10.5887 43.2946 10.7534 41.8911 11.2558L42.026 11.6324C43.3737 11.1499 44.7883 10.9885 46.1245 10.9763L46.1208 10.5764ZM42.088 11.5966C44.4158 9.62074 48.4562 6.11063 49.9411 4.96071L49.6962 4.64445C48.2019 5.80165 44.1458 9.32527 41.8291 11.2917L42.088 11.5966ZM49.9481 4.95506C50.4771 4.50601 51.0586 4.1214 51.606 3.71846L51.3688 3.39633C50.8433 3.78315 50.232 4.1894 49.6892 4.6501L49.9481 4.95506ZM51.643 3.4317L50.2472 1.70429L49.9361 1.95568L51.3318 3.68309L51.643 3.4317ZM50.0325 1.63895C49.752 1.72586 49.3487 1.8178 48.4588 1.88524L48.489 2.28409C49.398 2.21521 49.833 2.11954 50.1509 2.02102L50.0325 1.63895ZM48.4533 1.88573C46.8736 2.04923 39.743 2.35386 38.1861 2.36799L38.1897 2.76797C39.7527 2.75379 46.8971 2.44893 48.4945 2.2836L48.4533 1.88573ZM38.1861 2.36799C37.5905 2.37339 36.7598 2.35104 36.0809 2.26875L36.0328 2.66585C36.7356 2.75104 37.5853 2.77345 38.1897 2.76797L38.1861 2.36799Z" fill="white"/>
</svg>
