<?xml version="1.0" encoding="utf-8"?>
<!-- Generator: Adobe Illustrator 23.0.1, SVG Export Plug-In . SVG Version: 6.00 Build 0)  -->
<svg version="1.1" id="Layer_1" xmlns="http://www.w3.org/2000/svg" xmlns:xlink="http://www.w3.org/1999/xlink" x="0px" y="0px"
	 viewBox="0 0 300 300" style="enable-background:new 0 0 300 300;" xml:space="preserve">
<style type="text/css">
	.st0{fill:#FFFFFF;}
</style>
<g>
	<path class="st0" d="M79.91,145.37l53.17-0.48l0.1,11.47l-53.17,0.48L79.91,145.37z M79.75,127.06l53.17-0.48l0.1,11.36
		l-53.17,0.48L79.75,127.06z M79.58,108.97l53.17-0.48l0.1,11.25l-53.17,0.48L79.58,108.97z M127.86,189.4
		c-4.74,0.04-5.63-0.5-5.66-3.7l-0.2-21.95l19.53-0.18l-0.57-62.55l-69.39,0.63l0.57,62.55l14.89-0.14
		c-2.19,14.14-7.96,22.8-30.53,27.53c1.67,1.64,4.02,5.04,4.7,7.13c24.99-5.96,31.95-17.06,34.44-34.73l18.09-0.16l0.2,22.06
		c0.08,8.94,2.86,11.34,13.23,11.24l17.76-0.16c9.27-0.08,11.66-4.08,12.5-20.08c-2.32-0.53-5.86-1.82-7.64-3.24
		c-0.32,13.57-1.18,15.57-5.59,15.61L127.86,189.4z M202.33,177.36c-0.03-3.86,3.8-7.09,8.76-7.14c8.38-0.08,13.96,6.16,14.92,14.87
		c-2.75,0.47-5.73,0.71-8.93,0.74C208.47,185.91,202.38,182.65,202.33,177.36z M187.58,107.77l0.41,9.15
		c2.31-0.35,4.85-0.6,7.27-0.73c5.84-0.38,27.9-1.58,33.74-1.85c-5.58,5.02-19.27,16.72-25.4,21.85
		c-6.35,5.46-20.36,17.39-29.45,24.98l6.35,6.45c13.88-14.36,23.63-22.28,42.05-22.45c14.34-0.13,24.78,7.94,24.88,18.75
		c0.08,9.05-4.82,15.49-13.62,18.99c-1.42-10.47-8.89-19.45-22.68-19.32c-10.26,0.09-16.93,6.88-16.86,14.49
		c0.08,9.16,9.3,15.58,24.3,15.45c23.39-0.21,37.84-11.82,37.68-29.58c-0.14-14.89-13.36-25.8-31.67-25.64
		c-4.96,0.05-10.25,0.64-15.31,2.46c8.54-7.25,23.43-20.18,28.9-24.42c1.97-1.67,4.16-3.13,6.14-4.58l-5.13-6.35
		c-1.1,0.34-2.64,0.69-5.95,0.94c-5.84,0.6-32.09,1.73-37.82,1.78C193.2,108.16,190.12,108.08,187.58,107.77z"/>
	<path class="st0" d="M79.91,145.37l-0.01-0.74l-0.74,0.01l0.01,0.74L79.91,145.37z M133.08,144.89l0.74-0.01l-0.01-0.74l-0.74,0.01
		L133.08,144.89z M133.19,156.36l0.01,0.74l0.74-0.01l-0.01-0.74L133.19,156.36z M80.02,156.84l-0.74,0.01l0.01,0.74l0.74-0.01
		L80.02,156.84z M79.75,127.06l-0.01-0.74L79,126.33l0.01,0.74L79.75,127.06z M132.92,126.58l0.74-0.01l-0.01-0.74l-0.74,0.01
		L132.92,126.58z M133.02,137.94l0.01,0.74l0.74-0.01l-0.01-0.74L133.02,137.94z M79.85,138.42l-0.74,0.01l0.01,0.74l0.74-0.01
		L79.85,138.42z M79.58,108.97l-0.01-0.74l-0.74,0.01l0.01,0.74L79.58,108.97z M132.75,108.49l0.74-0.01l-0.01-0.74l-0.74,0.01
		L132.75,108.49z M132.85,119.74l0.01,0.74l0.74-0.01l-0.01-0.74L132.85,119.74z M79.68,120.22l-0.74,0.01l0.01,0.74l0.74-0.01
		L79.68,120.22z M122,163.74l-0.01-0.74l-0.74,0.01l0.01,0.74L122,163.74z M141.53,163.57l0.01,0.74l0.74-0.01l-0.01-0.74
		L141.53,163.57z M140.96,101.02l0.74-0.01l-0.01-0.74l-0.74,0.01L140.96,101.02z M71.57,101.65l-0.01-0.74l-0.74,0.01l0.01,0.74
		L71.57,101.65z M72.14,164.2l-0.74,0.01l0.01,0.74l0.74-0.01L72.14,164.2z M87.03,164.06l0.73,0.11l0.13-0.86l-0.87,0.01
		L87.03,164.06z M56.5,191.59l-0.15-0.72l-1.35,0.28l0.98,0.96L56.5,191.59z M61.2,198.72l-0.7,0.23l0.21,0.64l0.66-0.16
		L61.2,198.72z M95.64,163.98l-0.01-0.74L95,163.25l-0.09,0.63L95.64,163.98z M113.73,163.82l0.74-0.01l-0.01-0.74l-0.74,0.01
		L113.73,163.82z M157.42,176.88l0.73,0.04l0.03-0.62l-0.6-0.14L157.42,176.88z M149.78,173.64l0.46-0.58l-1.16-0.92l-0.03,1.48
		L149.78,173.64z M79.92,146.11l53.17-0.48l-0.01-1.47l-53.17,0.48L79.92,146.11z M132.35,144.9l0.1,11.47l1.47-0.01l-0.1-11.47
		L132.35,144.9z M133.18,155.63l-53.17,0.48l0.01,1.47l53.17-0.48L133.18,155.63z M80.75,156.84l-0.1-11.47l-1.47,0.01l0.1,11.47
		L80.75,156.84z M79.75,127.8l53.17-0.48l-0.01-1.47l-53.17,0.48L79.75,127.8z M132.18,126.58l0.1,11.36l1.47-0.01l-0.1-11.36
		L132.18,126.58z M133.01,137.2l-53.17,0.48l0.01,1.47l53.17-0.48L133.01,137.2z M80.58,138.42l-0.1-11.36l-1.47,0.01l0.1,11.36
		L80.58,138.42z M79.59,109.7l53.17-0.48l-0.01-1.47l-53.17,0.48L79.59,109.7z M132.02,108.49l0.1,11.25l1.47-0.01l-0.1-11.25
		L132.02,108.49z M132.85,119l-53.17,0.48l0.01,1.47l53.17-0.48L132.85,119z M80.42,120.21l-0.1-11.25l-1.47,0.01l0.1,11.25
		L80.42,120.21z M127.85,188.66c-1.18,0.01-2.08-0.02-2.78-0.1c-0.7-0.09-1.13-0.23-1.41-0.41c-0.47-0.3-0.71-0.85-0.73-2.46
		l-1.47,0.01c0.01,1.6,0.23,2.92,1.4,3.68c0.54,0.35,1.23,0.54,2.02,0.64c0.8,0.1,1.79,0.13,2.98,0.12L127.85,188.66z
		 M122.93,185.69l-0.2-21.95l-1.47,0.01l0.2,21.95L122.93,185.69z M122.01,164.48l19.53-0.18l-0.01-1.47l-19.53,0.18L122.01,164.48z
		 M142.26,163.56l-0.57-62.55l-1.47,0.01l0.57,62.55L142.26,163.56z M140.95,100.29l-69.39,0.63l0.01,1.47l69.39-0.63L140.95,100.29
		z M70.84,101.66l0.57,62.55l1.47-0.01l-0.57-62.55L70.84,101.66z M72.15,164.93l14.89-0.13l-0.01-1.47l-14.89,0.14L72.15,164.93z
		 M86.3,163.95c-1.08,7-3.03,12.52-7.41,16.88c-4.39,4.38-11.32,7.68-22.54,10.03l0.3,1.44c11.35-2.38,18.59-5.76,23.28-10.43
		c4.7-4.68,6.72-10.56,7.83-17.7L86.3,163.95z M55.99,192.11c0.79,0.77,1.76,1.99,2.62,3.28c0.87,1.3,1.58,2.6,1.89,3.55l1.4-0.46
		c-0.37-1.14-1.17-2.58-2.07-3.91c-0.9-1.34-1.93-2.65-2.82-3.51L55.99,192.11z M61.37,199.43c12.57-3,20.72-7.32,26.03-13.2
		c5.32-5.88,7.71-13.25,8.96-22.15l-1.46-0.21c-1.23,8.77-3.56,15.8-8.6,21.37c-5.04,5.58-12.86,9.79-25.28,12.75L61.37,199.43z
		 M95.64,164.72l18.09-0.16l-0.01-1.47l-18.09,0.16L95.64,164.72z M112.99,163.83l0.2,22.06l1.47-0.01l-0.2-22.06L112.99,163.83z
		 M113.19,185.89c0.04,4.49,0.75,7.63,3.02,9.56c2.23,1.9,5.78,2.46,10.96,2.41l-0.01-1.47c-5.19,0.05-8.22-0.55-9.99-2.06
		c-1.74-1.48-2.46-4.01-2.5-8.45L113.19,185.89z M127.16,197.86l17.76-0.16l-0.01-1.47l-17.76,0.16L127.16,197.86z M144.92,197.7
		c2.36-0.02,4.35-0.29,6.02-0.98c1.69-0.7,3-1.81,4.01-3.44c1-1.61,1.69-3.72,2.18-6.39c0.5-2.67,0.81-5.96,1.02-9.97l-1.47-0.08
		c-0.21,3.99-0.52,7.2-1,9.78c-0.48,2.58-1.13,4.49-1.99,5.88c-0.85,1.38-1.93,2.28-3.32,2.86c-1.42,0.58-3.2,0.85-5.47,0.87
		L144.92,197.7z M157.59,176.17c-1.12-0.26-2.55-0.7-3.91-1.25c-1.37-0.56-2.63-1.2-3.43-1.85l-0.92,1.15
		c0.97,0.77,2.38,1.48,3.8,2.06c1.43,0.58,2.94,1.05,4.14,1.32L157.59,176.17z M149.05,173.63c-0.08,3.39-0.19,6.04-0.38,8.11
		c-0.19,2.08-0.46,3.52-0.83,4.53c-0.36,0.99-0.8,1.5-1.32,1.8c-0.54,0.31-1.27,0.44-2.33,0.45l0.01,1.47
		c1.14-0.01,2.18-0.14,3.05-0.64c0.9-0.52,1.52-1.36,1.97-2.57c0.44-1.19,0.72-2.79,0.92-4.9c0.2-2.12,0.31-4.81,0.39-8.21
		L149.05,173.63z M144.18,188.51l-16.33,0.15l0.01,1.47l16.33-0.15L144.18,188.51z M226.01,185.09l0.12,0.73l0.68-0.12l-0.08-0.69
		L226.01,185.09z M187.58,107.77l0.09-0.73l-0.86-0.1l0.04,0.87L187.58,107.77z M187.99,116.92l-0.73,0.03l0.04,0.82l0.81-0.12
		L187.99,116.92z M195.26,116.19l0.04,0.73l0.01,0L195.26,116.19z M229.01,114.34l0.49,0.55l1.53-1.38l-2.06,0.1L229.01,114.34z
		 M203.61,136.2l-0.47-0.56l-0.01,0.01L203.61,136.2z M174.16,161.18l-0.47-0.56l-0.61,0.51l0.56,0.57L174.16,161.18z
		 M180.51,167.63l-0.52,0.52l0.53,0.54l0.52-0.54L180.51,167.63z M233.82,182.92l-0.73,0.1l0.13,0.93l0.87-0.35L233.82,182.92z
		 M209.28,140.78l-0.48-0.56l0.72,1.25L209.28,140.78z M238.18,116.36l0.45,0.58l0.03-0.02L238.18,116.36z M244.32,111.78l0.44,0.59
		l0.62-0.46l-0.48-0.6L244.32,111.78z M239.18,105.42l0.57-0.46l-0.31-0.39l-0.48,0.15L239.18,105.42z M233.24,106.36l-0.06-0.73
		l-0.02,0L233.24,106.36z M203.06,177.35c-0.03-3.32,3.32-6.36,8.03-6.4l-0.01-1.47c-5.22,0.05-9.53,3.48-9.49,7.88L203.06,177.35z
		 M211.1,170.95c3.99-0.04,7.29,1.43,9.71,3.92c2.43,2.5,4.01,6.07,4.47,10.3l1.46-0.16c-0.5-4.48-2.18-8.38-4.88-11.16
		c-2.7-2.79-6.39-4.4-10.78-4.36L211.1,170.95z M225.88,184.36c-2.71,0.46-5.65,0.7-8.81,0.73l0.01,1.47
		c3.23-0.03,6.25-0.28,9.05-0.75L225.88,184.36z M217.07,185.09c-4.22,0.04-7.76-0.74-10.22-2.13c-2.44-1.37-3.77-3.3-3.79-5.62
		l-1.47,0.01c0.03,2.98,1.77,5.33,4.54,6.88c2.75,1.55,6.57,2.35,10.95,2.32L217.07,185.09z M186.84,107.8l0.41,9.15l1.47-0.07
		l-0.41-9.15L186.84,107.8z M188.1,117.65c2.29-0.35,4.8-0.59,7.2-0.72l-0.08-1.47c-2.45,0.13-5,0.38-7.35,0.74L188.1,117.65z
		 M195.31,116.93c5.84-0.38,27.89-1.58,33.73-1.85l-0.07-1.47c-5.85,0.27-27.91,1.47-33.76,1.85L195.31,116.93z M228.51,113.8
		c-5.57,5.01-19.25,16.71-25.38,21.84l0.94,1.13c6.13-5.13,19.83-16.85,25.42-21.87L228.51,113.8z M203.13,135.64
		c-6.35,5.46-20.36,17.39-29.44,24.97l0.94,1.13c9.09-7.59,23.11-19.52,29.46-24.99L203.13,135.64z M173.63,161.69l6.35,6.45
		l1.05-1.03l-6.35-6.45L173.63,161.69z M181.03,168.14c6.94-7.18,12.78-12.68,19.16-16.42c6.36-3.73,13.27-5.72,22.36-5.8
		l-0.01-1.47c-9.33,0.08-16.5,2.14-23.09,6c-6.57,3.85-12.54,9.49-19.48,16.67L181.03,168.14z M222.56,145.92
		c14.12-0.13,24.05,7.78,24.14,18.02l1.47-0.01c-0.1-11.38-11.06-19.61-25.62-19.48L222.56,145.92z M246.7,163.94
		c0.04,4.38-1.13,8.1-3.34,11.13c-2.22,3.04-5.52,5.45-9.81,7.16l0.54,1.37c4.5-1.79,8.05-4.35,10.46-7.66
		c2.42-3.32,3.66-7.35,3.62-12.01L246.7,163.94z M234.55,182.82c-0.73-5.37-3.02-10.4-6.93-14.07c-3.92-3.68-9.42-5.95-16.49-5.89
		l0.01,1.47c6.72-0.06,11.85,2.09,15.47,5.49c3.63,3.4,5.79,8.1,6.48,13.2L234.55,182.82z M211.13,162.86
		c-10.58,0.1-17.66,7.14-17.59,15.24l1.47-0.01c-0.06-7.13,6.19-13.66,16.13-13.75L211.13,162.86z M193.55,178.1
		c0.04,4.86,2.52,8.97,6.89,11.82c4.35,2.84,10.56,4.43,18.15,4.36l-0.01-1.47c-7.41,0.07-13.3-1.49-17.34-4.12
		c-4.01-2.62-6.18-6.3-6.22-10.6L193.55,178.1z M218.59,194.27c11.8-0.11,21.44-3.09,28.12-8.37c6.7-5.29,10.37-12.85,10.29-21.95
		l-1.47,0.01c0.08,8.66-3.4,15.78-9.73,20.79c-6.35,5.02-15.64,7.94-27.22,8.05L218.59,194.27z M257,163.95
		c-0.14-15.42-13.83-26.54-32.42-26.37l0.01,1.47c18.04-0.16,30.8,10.55,30.93,24.91L257,163.95z M224.58,137.59
		c-5.01,0.05-10.39,0.65-15.55,2.5l0.5,1.38c4.96-1.77,10.16-2.37,15.07-2.41L224.58,137.59z M209.75,141.34
		c8.56-7.27,23.42-20.17,28.88-24.4l-0.9-1.16c-5.49,4.26-20.41,17.21-28.93,24.44L209.75,141.34z M238.66,116.92
		c1.95-1.65,4.08-3.07,6.1-4.55l-0.87-1.18c-1.93,1.42-4.18,2.92-6.18,4.61L238.66,116.92z M244.89,111.31l-5.13-6.35l-1.14,0.92
		l5.13,6.35L244.89,111.31z M238.97,104.72c-1.03,0.32-2.51,0.66-5.79,0.91l0.11,1.47c3.34-0.25,4.94-0.61,6.11-0.97L238.97,104.72z
		 M233.16,105.63c-5.81,0.6-32.03,1.72-37.75,1.77l0.01,1.47c5.75-0.05,32.02-1.17,37.89-1.78L233.16,105.63z M195.4,107.4
		c-2.19,0.02-5.24-0.06-7.74-0.36l-0.18,1.46c2.58,0.31,5.71,0.4,7.93,0.38L195.4,107.4z"/>
</g>
</svg>
